<?xml version="1.0" encoding="UTF-8" standalone="no"?>
<!DOCTYPE svg PUBLIC "-//W3C//DTD SVG 1.1//EN" "http://www.w3.org/Graphics/SVG/1.1/DTD/svg11.dtd">
<svg version="1.1" xmlns="http://www.w3.org/2000/svg" xmlns:xlink="http://www.w3.org/1999/xlink" preserveAspectRatio="xMidYMid meet" viewBox="0 0 640 640" width="150" height="150"><defs><path d="M448.85 156.5C448.85 70.07 429.91 0 320 0C210.09 0 191.15 70.07 191.15 156.5C191.15 242.93 248.84 313 320 313C391.16 313 448.85 242.93 448.85 156.5Z" id="bwfsb7Lro"></path><path d="M76.63 551.96C76.63 551.96 76.63 551.96 76.63 551.96C76.6 550.97 76.6 550.97 76.63 551.96Z" id="c5K7LZ7aiw"></path><path d="M563.36 556.08C563.36 556.08 563.36 556.08 563.36 556.08C563.37 549.4 563.37 549.4 563.36 556.08Z" id="b3DvlwYjd"></path><path d="M390.55 325.01C390.55 325.01 369.37 352 320 352C270.63 352 249.44 325.01 249.44 325.01C100.6 351.87 79.74 394.14 77 540.75C76.78 552.72 76.67 553.35 76.63 551.96C76.64 554.56 76.65 559.38 76.65 567.78C76.65 567.78 112.48 640 320 640C527.52 640 563.34 567.78 563.34 567.78C563.34 562.38 563.35 558.63 563.35 556.08C563.31 556.94 563.23 555.27 563.08 545.64C560.69 395.07 541.03 352.17 390.55 325.01Z" id="a8TtWnpRk"></path></defs><g><g><g><use xlink:href="#bwfsb7Lro" opacity="1" fill="#000000" fill-opacity="1"></use><g><use xlink:href="#bwfsb7Lro" opacity="1" fill-opacity="0" stroke="#000000" stroke-width="1" stroke-opacity="0"></use></g></g><g><use xlink:href="#c5K7LZ7aiw" opacity="1" fill="#000000" fill-opacity="1"></use><g><use xlink:href="#c5K7LZ7aiw" opacity="1" fill-opacity="0" stroke="#000000" stroke-width="1" stroke-opacity="0"></use></g></g><g><use xlink:href="#b3DvlwYjd" opacity="1" fill="#000000" fill-opacity="1"></use><g><use xlink:href="#b3DvlwYjd" opacity="1" fill-opacity="0" stroke="#000000" stroke-width="1" stroke-opacity="0"></use></g></g><g><use xlink:href="#a8TtWnpRk" opacity="1" fill="#000000" fill-opacity="1"></use><g><use xlink:href="#a8TtWnpRk" opacity="1" fill-opacity="0" stroke="#000000" stroke-width="1" stroke-opacity="0"></use></g></g></g></g></svg>